<?xml version="1.0" encoding="UTF-8"?>
<svg version="1.1" xmlns="http://www.w3.org/2000/svg" width="32" height="32">
<path d="M0 0 C0.99 0 1.98 0 3 0 C2.67 1.32 2.34 2.64 2 4 C2.61875 4.45375 3.2375 4.9075 3.875 5.375 C6 7 6 7 8 9 C7.625 11.625 7.625 11.625 7 14 C9.475 14.495 9.475 14.495 12 15 C11.67 15.99 11.34 16.98 11 18 C9.35 18 7.7 18 6 18 C5.34 19.32 4.68 20.64 4 22 C4.99 22 5.98 22 7 22 C7 22.99 7 23.98 7 25 C6.01 25 5.02 25 4 25 C3.34 24.34 2.68 23.68 2 23 C1.34 23 0.68 23 0 23 C0 23.99 0 24.98 0 26 C-0.66 26 -1.32 26 -2 26 C-2 25.34 -2 24.68 -2 24 C-2.928125 24.020625 -3.85625 24.04125 -4.8125 24.0625 C-8 24 -8 24 -11 23 C-11.33 23.66 -11.66 24.32 -12 25 C-13.32 25 -14.64 25 -16 25 C-15.67 24.2575 -15.34 23.515 -15 22.75 C-13.77217129 19.86116688 -13.77217129 19.86116688 -14 16 C-14.66 16 -15.32 16 -16 16 C-15.34 13.69 -14.68 11.38 -14 9 C-15.32 8.67 -16.64 8.34 -18 8 C-18 7.01 -18 6.02 -18 5 C-16.8553125 5.2784375 -16.8553125 5.2784375 -15.6875 5.5625 C-12.91032625 6.22819173 -12.91032625 6.22819173 -10 5 C-10 4.01 -10 3.02 -10 2 C-6.4780279 1.91995518 -3.38018531 1.95994298 0 3 C0 2.01 0 1.02 0 0 Z " fill="#FF00CC" transform="translate(20,2)"/>
<path d="M0 0 C0.66 0 1.32 0 2 0 C1.67 0.99 1.34 1.98 1 3 C0.67 2.01 0.34 1.02 0 0 Z " fill="#FF00CC" transform="translate(19,29)"/>
<path d="M0 0 C0.33 0.99 0.66 1.98 1 3 C0.34 3 -0.32 3 -1 3 C-0.67 2.01 -0.34 1.02 0 0 Z " fill="#FF00CC" transform="translate(10,27)"/>
<path d="M0 0 C0.66 0 1.32 0 2 0 C2 0.66 2 1.32 2 2 C1.01 1.67 0.02 1.34 -1 1 C-0.67 0.67 -0.34 0.34 0 0 Z " fill="#FF00CC" transform="translate(1,12)"/>
<path d="" fill="#FF00CC" transform="translate(0,0)"/>
<path d="M0 0 C2 1 2 1 2 1 Z " fill="#FF00CC" transform="translate(1,21)"/>
<path d="M0 0 C2 1 2 1 2 1 Z " fill="#FF00CC" transform="translate(29,13)"/>
<path d="" fill="#FF00CC" transform="translate(0,0)"/>
<path d="" fill="#FF00CC" transform="translate(0,0)"/>
</svg>
